<svg width="295" height="267" viewBox="0 0 295 267" fill="none" xmlns="http://www.w3.org/2000/svg">
<rect width="295" height="267" rx="8" fill="#07193C"/>
<path d="M90.1114 24.4102L101.428 35.7317L86.2283 50.9317C81.0614 56.1032 74.22 58.7203 67.446 58.7113C60.6764 58.7203 53.8305 56.1032 48.6636 50.9317L33.4635 35.7317L44.7806 24.4102L59.9806 39.6102C62.0635 41.6842 64.7166 42.6942 67.4415 42.7032C70.1664 42.6942 72.8194 41.6887 74.9023 39.6102L90.1024 24.4102H90.1114ZM115.996 95.6162L100.796 80.4161C98.7215 78.3332 97.7159 75.6801 97.7069 72.9552C97.7159 70.2259 98.7215 67.5728 100.796 65.4944L115.996 50.2943L104.679 38.9728L89.4784 54.1729C84.307 59.3398 81.6899 66.1857 81.6989 72.9552C81.6899 79.7248 84.307 86.5707 89.4784 91.7331L104.679 106.933L116 95.6162H115.996ZM44.7851 121.5L59.9851 106.3C62.068 104.222 64.7166 103.216 67.446 103.207C70.1709 103.216 72.8239 104.222 74.9068 106.3L90.1069 121.5L101.428 110.179L86.2283 94.9787C81.0614 89.8073 74.22 87.1901 67.446 87.1991C60.6764 87.1901 53.8305 89.8073 48.6636 94.9787L33.4635 110.179L44.7851 121.5ZM18.9009 50.2943L34.101 65.4944C36.175 67.5773 37.1805 70.2304 37.1894 72.9552C37.1805 75.6801 36.175 78.3332 34.101 80.4161L18.9009 95.6162L30.2224 106.938L45.4225 91.7376C50.5939 86.5707 53.2111 79.7293 53.2021 72.9597C53.2111 66.1902 50.5939 59.3443 45.4225 54.1773L30.2224 38.9773L18.9009 50.2988V50.2943Z" fill="#00B4FD"/>
<path d="M250.211 24.4102L261.528 35.7317L246.327 50.9317C241.16 56.1032 234.319 58.7203 227.545 58.7113C220.776 58.7203 213.93 56.1032 208.763 50.9317L193.563 35.7317L204.88 24.4102L220.08 39.6102C222.163 41.6842 224.816 42.6942 227.541 42.7032C230.266 42.6942 232.919 41.6887 235.001 39.6102L250.202 24.4102H250.211ZM276.095 95.6162L260.895 80.4161C258.821 78.3332 257.815 75.6801 257.806 72.9552C257.815 70.2259 258.821 67.5728 260.895 65.4944L276.095 50.2943L264.778 38.9728L249.578 54.1729C244.406 59.3398 241.789 66.1857 241.798 72.9552C241.789 79.7248 244.406 86.5707 249.578 91.7331L264.778 106.933L276.099 95.6162H276.095ZM204.884 121.5L220.084 106.3C222.167 104.222 224.816 103.216 227.545 103.207C230.27 103.216 232.923 104.222 235.006 106.3L250.206 121.5L261.528 110.179L246.327 94.9787C241.16 89.8073 234.319 87.1901 227.545 87.1991C220.776 87.1901 213.93 89.8073 208.763 94.9787L193.563 110.179L204.884 121.5ZM179 50.2943L194.2 65.4944C196.274 67.5773 197.28 70.2304 197.289 72.9552C197.28 75.6801 196.274 78.3332 194.2 80.4161L179 95.6162L190.321 106.938L205.522 91.7376C210.693 86.5707 213.31 79.7293 213.301 72.9597C213.31 66.1902 210.693 59.3443 205.522 54.1773L190.321 38.9773L179 50.2988V50.2943Z" fill="#00B4FD"/>
<path d="M90.1114 145.5L101.428 156.822L86.2283 172.022C81.0614 177.193 74.22 179.81 67.446 179.801C60.6764 179.81 53.8305 177.193 48.6636 172.022L33.4635 156.822L44.7806 145.5L59.9806 160.7C62.0635 162.774 64.7166 163.784 67.4415 163.793C70.1664 163.784 72.8194 162.779 74.9023 160.7L90.1024 145.5H90.1114ZM115.996 216.706L100.796 201.506C98.7215 199.423 97.7159 196.77 97.7069 194.045C97.7159 191.316 98.7215 188.663 100.796 186.584L115.996 171.384L104.679 160.063L89.4784 175.263C84.307 180.43 81.6899 187.276 81.6989 194.045C81.6899 200.815 84.307 207.661 89.4784 212.823L104.679 228.023L116 216.706H115.996ZM44.7851 242.59L59.9851 227.39C62.068 225.312 64.7166 224.306 67.446 224.297C70.1709 224.306 72.8239 225.312 74.9068 227.39L90.1069 242.59L101.428 231.269L86.2283 216.069C81.0614 210.897 74.22 208.28 67.446 208.289C60.6764 208.28 53.8305 210.897 48.6636 216.069L33.4635 231.269L44.7851 242.59ZM18.9009 171.384L34.101 186.584C36.175 188.667 37.1805 191.32 37.1894 194.045C37.1805 196.77 36.175 199.423 34.101 201.506L18.9009 216.706L30.2224 228.028L45.4225 212.828C50.5939 207.661 53.2111 200.819 53.2021 194.05C53.2111 187.28 50.5939 180.434 45.4225 175.267L30.2224 160.067L18.9009 171.389V171.384Z" fill="#00B4FD"/>
<path d="M250.211 145.5L261.528 156.822L246.327 172.022C241.16 177.193 234.319 179.81 227.545 179.801C220.776 179.81 213.93 177.193 208.763 172.022L193.563 156.822L204.88 145.5L220.08 160.7C222.163 162.774 224.816 163.784 227.541 163.793C230.266 163.784 232.919 162.779 235.001 160.7L250.202 145.5H250.211ZM276.095 216.706L260.895 201.506C258.821 199.423 257.815 196.77 257.806 194.045C257.815 191.316 258.821 188.663 260.895 186.584L276.095 171.384L264.778 160.063L249.578 175.263C244.406 180.43 241.789 187.276 241.798 194.045C241.789 200.815 244.406 207.661 249.578 212.823L264.778 228.023L276.099 216.706H276.095ZM204.884 242.59L220.084 227.39C222.167 225.312 224.816 224.306 227.545 224.297C230.27 224.306 232.923 225.312 235.006 227.39L250.206 242.59L261.528 231.269L246.327 216.069C241.16 210.897 234.319 208.28 227.545 208.289C220.776 208.28 213.93 210.897 208.763 216.069L193.563 231.269L204.884 242.59ZM179 171.384L194.2 186.584C196.274 188.667 197.28 191.32 197.289 194.045C197.28 196.77 196.274 199.423 194.2 201.506L179 216.706L190.321 228.028L205.522 212.828C210.693 207.661 213.31 200.819 213.301 194.05C213.31 187.28 210.693 180.434 205.522 175.267L190.321 160.067L179 171.389V171.384Z" fill="#00B4FD"/>
</svg>
