<svg width="49" height="11" viewBox="0 0 49 11" fill="none" xmlns="http://www.w3.org/2000/svg">
<path d="M5.51799 7.37759C5.51799 7.20242 5.49104 7.04521 5.43714 6.90597C5.38773 6.76224 5.29341 6.63198 5.15417 6.51519C5.01493 6.39392 4.81954 6.27489 4.568 6.15811C4.31647 6.04132 3.99083 5.92005 3.59107 5.79428C3.14639 5.65055 2.72418 5.48885 2.32442 5.30918C1.92915 5.12952 1.5788 4.92065 1.27337 4.6826C0.972428 4.44005 0.734369 4.15932 0.559195 3.84041C0.388511 3.5215 0.30317 3.15094 0.30317 2.72872C0.30317 2.31998 0.393003 1.94942 0.57267 1.61704C0.752336 1.28016 1.00387 0.992694 1.32727 0.754636C1.65067 0.512086 2.03246 0.325682 2.47264 0.195424C2.91732 0.0651654 3.40466 3.63179e-05 3.93468 3.63179e-05C4.65784 3.63179e-05 5.28892 0.130295 5.82792 0.390811C6.36692 0.651328 6.78464 1.00841 7.08109 1.46207C7.38203 1.91573 7.5325 2.43452 7.5325 3.01843H5.52473C5.52473 2.73097 5.46409 2.47943 5.34282 2.26383C5.22603 2.04374 5.04637 1.87081 4.80382 1.74505C4.56576 1.61928 4.26482 1.5564 3.90099 1.5564C3.55064 1.5564 3.25868 1.6103 3.02512 1.7181C2.79155 1.82141 2.61638 1.96289 2.49959 2.14256C2.38281 2.31773 2.32442 2.51537 2.32442 2.73546C2.32442 2.90165 2.36484 3.05212 2.44569 3.18687C2.53104 3.32162 2.6568 3.44739 2.82299 3.56417C2.98918 3.68095 3.19356 3.791 3.43611 3.89431C3.67866 3.99762 3.95938 4.09868 4.27829 4.1975C4.8128 4.3592 5.28218 4.54111 5.68643 4.74323C6.09517 4.94536 6.43654 5.17219 6.71053 5.42372C6.98452 5.67525 7.19114 5.96047 7.33038 6.27938C7.46962 6.59829 7.53924 6.95987 7.53924 7.36412C7.53924 7.79083 7.45614 8.17262 7.28995 8.50949C7.12376 8.84637 6.88346 9.13159 6.56904 9.36516C6.25462 9.59872 5.87957 9.77614 5.44388 9.89742C5.00819 10.0187 4.52084 10.0793 3.98184 10.0793C3.49674 10.0793 3.01838 10.0164 2.54676 9.89068C2.07513 9.76042 1.64618 9.56503 1.25989 9.30452C0.878103 9.044 0.57267 8.71162 0.343595 8.30737C0.11452 7.90312 -1.75769e-05 7.42476 -1.75769e-05 6.87228H2.02797C2.02797 7.17772 2.07513 7.43599 2.16946 7.64709C2.26378 7.8582 2.39629 8.02889 2.56697 8.15914C2.74214 8.2894 2.94876 8.38373 3.18682 8.44212C3.42937 8.50051 3.69438 8.52971 3.98184 8.52971C4.33219 8.52971 4.61966 8.4803 4.84424 8.38148C5.07332 8.28266 5.24175 8.14567 5.34955 7.97049C5.46185 7.79532 5.51799 7.59769 5.51799 7.37759ZM15.4558 4.13012V5.7067H10.3353V4.13012H15.4558ZM10.9349 0.134786V9.94458H8.91369V0.134786H10.9349ZM16.8976 0.134786V9.94458H14.8831V0.134786H16.8976ZM25.2386 8.36801V9.94458H20.0171V8.36801H25.2386ZM20.6774 0.134786V9.94458H18.6561V0.134786H20.6774ZM24.5582 4.13012V5.66627H20.0171V4.13012H24.5582ZM25.2319 0.134786V1.7181H20.0171V0.134786H25.2319ZM32.724 8.36801V9.94458H27.7854V8.36801H32.724ZM28.439 0.134786V9.94458H26.4177V0.134786H28.439ZM40.1891 8.36801V9.94458H35.2506V8.36801H40.1891ZM35.9041 0.134786V9.94458H33.8828V0.134786H35.9041ZM46.455 7.37759C46.455 7.20242 46.4281 7.04521 46.3742 6.90597C46.3248 6.76224 46.2304 6.63198 46.0912 6.51519C45.9519 6.39392 45.7566 6.27489 45.505 6.15811C45.2535 6.04132 44.9278 5.92005 44.5281 5.79428C44.0834 5.65055 43.6612 5.48885 43.2614 5.30918C42.8662 5.12952 42.5158 4.92065 42.2104 4.6826C41.9095 4.44005 41.6714 4.15932 41.4962 3.84041C41.3255 3.5215 41.2402 3.15094 41.2402 2.72872C41.2402 2.31998 41.33 1.94942 41.5097 1.61704C41.6894 1.28016 41.9409 0.992694 42.2643 0.754636C42.5877 0.512086 42.9695 0.325682 43.4097 0.195424C43.8543 0.0651654 44.3417 3.63179e-05 44.8717 3.63179e-05C45.5949 3.63179e-05 46.2259 0.130295 46.7649 0.390811C47.3039 0.651328 47.7217 1.00841 48.0181 1.46207C48.3191 1.91573 48.4695 2.43452 48.4695 3.01843H46.4618C46.4618 2.73097 46.4011 2.47943 46.2798 2.26383C46.1631 2.04374 45.9834 1.87081 45.7408 1.74505C45.5028 1.61928 45.2018 1.5564 44.838 1.5564C44.4877 1.5564 44.1957 1.6103 43.9621 1.7181C43.7286 1.82141 43.5534 1.96289 43.4366 2.14256C43.3198 2.31773 43.2614 2.51537 43.2614 2.73546C43.2614 2.90165 43.3019 3.05212 43.3827 3.18687C43.4681 3.32162 43.5938 3.44739 43.76 3.56417C43.9262 3.68095 44.1306 3.791 44.3731 3.89431C44.6157 3.99762 44.8964 4.09868 45.2153 4.1975C45.7498 4.3592 46.2192 4.54111 46.6235 4.74323C47.0322 4.94536 47.3736 5.17219 47.6476 5.42372C47.9215 5.67525 48.1282 5.96047 48.2674 6.27938C48.4066 6.59829 48.4763 6.95987 48.4763 7.36412C48.4763 7.79083 48.3932 8.17262 48.227 8.50949C48.0608 8.84637 47.8205 9.13159 47.5061 9.36516C47.1916 9.59872 46.8166 9.77614 46.3809 9.89742C45.9452 10.0187 45.4579 10.0793 44.9189 10.0793C44.4338 10.0793 43.9554 10.0164 43.4838 9.89068C43.0122 9.76042 42.5832 9.56503 42.1969 9.30452C41.8151 9.044 41.5097 8.71162 41.2806 8.30737C41.0515 7.90312 40.937 7.42476 40.937 6.87228H42.965C42.965 7.17772 43.0122 7.43599 43.1065 7.64709C43.2008 7.8582 43.3333 8.02889 43.504 8.15914C43.6792 8.2894 43.8858 8.38373 44.1238 8.44212C44.3664 8.50051 44.6314 8.52971 44.9189 8.52971C45.2692 8.52971 45.5567 8.4803 45.7813 8.38148C46.0103 8.28266 46.1788 8.14567 46.2866 7.97049C46.3989 7.79532 46.455 7.59769 46.455 7.37759Z" fill="#586E84"/>
</svg>
